ffmpeg started on 2016-12-05 at 07:27:30
Report written to "Output/x264/results/ffmpeg/sintelveryfast12000k.log"
Command line:
Tools/ffmpeg/ffmpeg -benchmark -y -i Input/y4m/sintel.y4m -c:v libx264 -preset veryfast -b:v 12000k -an Output/x264/encoded/sintelveryfast12000k.mkv
ffmpeg version N-82227-gdb23fde Copyright (c) 2000-2016 the FFmpeg developers
  built with gcc 5.4.0 (Ubuntu 5.4.0-6ubuntu1~16.04.2) 20160609
  configuration: --prefix=/home/jaroslav/ffmpeg_build --pkg-config-flags=--static --extra-cflags=-I/home/jaroslav/ffmpeg_build/include --extra-ldflags=-L/home/jaroslav/ffmpeg_build/lib --bindir=/home/jaroslav/bin --enable-gpl --enable-libass --enable-libfdk-aac --enable-libfreetype --enable-libmp3lame --enable-libopus --enable-libtheora --enable-libvorbis --enable-libvpx --enable-libx264 --enable-libx265 --enable-nvenc --enable-libmfx --enable-libxvid --enable-libgsm --enable-libopencore-amrnb --enable-version3 --enable-nonfree
  libavutil      55. 35.100 / 55. 35.100
  libavcodec     57. 66.101 / 57. 66.101
  libavformat    57. 57.100 / 57. 57.100
  libavdevice    57.  2.100 / 57.  2.100
  libavfilter     6. 66.100 /  6. 66.100
  libswscale      4.  3.100 /  4.  3.100
  libswresample   2.  4.100 /  2.  4.100
  libpostproc    54.  2.100 / 54.  2.100
Input #0, yuv4mpegpipe, from 'Input/y4m/sintel.y4m':
  Duration: 00:00:20.83, start: 0.000000, bitrate: 2057307 kb/s
    Stream #0:0: Video: rawvideo (I420 / 0x30323449), yuv420p(progressive), 4096x1744, SAR 1:1 DAR 256:109, 24 fps, 24 tbr, 24 tbn, 24 tbc
[libx264 @ 0x40771c0] using SAR=1/1
[libx264 @ 0x40771c0] using cpu capabilities: MMX2 SSE2Fast SSSE3 SSE4.2 AVX FMA3 AVX2 LZCNT BMI2
[libx264 @ 0x40771c0] profile High, level 5.1
[libx264 @ 0x40771c0] 264 - core 148 - H.264/MPEG-4 AVC codec - Copyleft 2003-2016 - http://www.videolan.org/x264.html - options: cabac=1 ref=1 deblock=1:0:0 analyse=0x3:0x113 me=hex subme=2 psy=1 psy_rd=1.00:0.00 mixed_ref=0 me_range=16 chroma_me=1 trellis=0 8x8dct=1 cqm=0 deadzone=21,11 fast_pskip=1 chroma_qp_offset=0 threads=6 lookahead_threads=2 sliced_threads=0 nr=0 decimate=1 interlaced=0 bluray_compat=0 constrained_intra=0 bframes=3 b_pyramid=2 b_adapt=1 b_bias=0 direct=1 weightb=1 open_gop=0 weightp=1 keyint=250 keyint_min=24 scenecut=40 intra_refresh=0 rc_lookahead=10 rc=abr mbtree=1 bitrate=12000 ratetol=1.0 qcomp=0.60 qpmin=0 qpmax=69 qpstep=4 ip_ratio=1.40 aq=1:1.00
Output #0, matroska, to 'Output/x264/encoded/sintelveryfast12000k.mkv':
  Metadata:
    encoder         : Lavf57.57.100
    Stream #0:0: Video: h264 (libx264) (H264 / 0x34363248), yuv420p, 4096x1744 [SAR 1:1 DAR 256:109], q=-1--1, 12000 kb/s, 24 fps, 1k tbn, 24 tbc
    Metadata:
      encoder         : Lavc57.66.101 libx264
    Side data:
      cpb: bitrate max/min/avg: 0/0/12000000 buffer size: 0 vbv_delay: -1
Stream mapping:
  Stream #0:0 -> #0:0 (rawvideo (native) -> h264 (libx264))
Press [q] to stop, [?] for help
frame=   11 fps=0.0 q=0.0 size=       0kB time=00:00:00.00 bitrate=N/A speed=   0x    frame=   16 fps= 15 q=0.0 size=       0kB time=00:00:00.00 bitrate=N/A speed=   0x    frame=   23 fps= 14 q=23.0 size=       1kB time=00:00:00.00 bitrate=5864.0kbits/s speed=0.000606x    frame=   28 fps= 12 q=41.0 size=       1kB time=00:00:00.20 bitrate=  28.1kbits/s speed=0.0923x    frame=   39 fps= 14 q=40.0 size=       1kB time=00:00:00.66 bitrate=   8.8kbits/s speed=0.24x    frame=   51 fps= 15 q=38.0 size=       1kB time=00:00:01.16 bitrate=   5.0kbits/s speed=0.354x    frame=   62 fps= 16 q=37.0 size=       1kB time=00:00:01.62 bitrate=   3.6kbits/s speed=0.427x    frame=   72 fps= 17 q=36.0 size=       1kB time=00:00:02.04 bitrate=   2.9kbits/s speed=0.472x    frame=   79 fps=9.9 q=36.0 size=       1kB time=00:00:02.33 bitrate=   2.5kbits/s speed=0.293x    frame=   80 fps=9.0 q=36.0 size=       1kB time=00:00:02.37 bitrate=   2.5kbits/s speed=0.268x    frame=   90 fps=9.6 q=35.0 size=    5159kB time=00:00:02.79 bitrate=15130.1kbits/s speed=0.297x    frame=  100 fps= 10 q=35.0 size=    5159kB time=00:00:03.20 bitrate=13168.7kbits/s speed=0.324x    frame=  109 fps= 10 q=35.0 size=    5159kB time=00:00:03.58 bitrate=11790.9kbits/s speed=0.343x    frame=  120 fps= 11 q=34.0 size=    6484kB time=00:00:04.04 bitrate=13138.3kbits/s speed=0.368x    frame=  131 fps= 11 q=32.0 size=    6484kB time=00:00:04.50 bitrate=11801.4kbits/s speed=0.391x    frame=  141 fps= 12 q=33.0 size=    6484kB time=00:00:04.91 bitrate=10800.7kbits/s speed=0.407x    frame=  152 fps= 12 q=33.0 size=    6484kB time=00:00:05.37 bitrate=9880.6kbits/s speed=0.425x    frame=  164 fps= 12 q=33.0 size=    6484kB time=00:00:05.87 bitrate=9039.8kbits/s speed=0.445x    frame=  176 fps= 13 q=33.0 size=    6484kB time=00:00:06.37 bitrate=8330.9kbits/s speed=0.465x    frame=  187 fps= 13 q=32.0 size=    9387kB time=00:00:06.83 bitrate=11251.7kbits/s speed=0.48x    frame=  198 fps= 13 q=32.0 size=    9387kB time=00:00:07.29 bitrate=10543.6kbits/s speed=0.493x    frame=  208 fps= 14 q=32.0 size=   10684kB time=00:00:07.70 bitrate=11353.5kbits/s speed=0.504x    frame=  219 fps= 14 q=32.0 size=   10684kB time=00:00:08.16 bitrate=10715.5kbits/s speed=0.516x    frame=  228 fps= 14 q=32.0 size=   10684kB time=00:00:08.54 bitrate=10245.1kbits/s speed=0.523x    frame=  239 fps= 14 q=32.0 size=   10684kB time=00:00:09.00 bitrate=9723.8kbits/s speed=0.535x    frame=  250 fps= 14 q=31.0 size=   10684kB time=00:00:09.45 bitrate=9253.0kbits/s speed=0.545x    frame=  261 fps= 15 q=31.0 size=   10684kB time=00:00:09.91 bitrate=8824.7kbits/s speed=0.555x    frame=  273 fps= 15 q=31.0 size=   10684kB time=00:00:10.41 bitrate=8401.2kbits/s speed=0.566x    frame=  283 fps= 15 q=31.0 size=   10684kB time=00:00:10.83 bitrate=8078.6kbits/s speed=0.567x    frame=  296 fps= 15 q=30.0 size=   14781kB time=00:00:11.37 bitrate=10643.9kbits/s speed=0.58x    frame=  308 fps= 15 q=30.0 size=   14781kB time=00:00:11.87 bitrate=10195.8kbits/s speed=0.59x    frame=  321 fps= 16 q=30.0 size=   14781kB time=00:00:12.41 bitrate=9750.8kbits/s speed=0.602x    frame=  337 fps= 16 q=29.0 size=   14781kB time=00:00:13.08 bitrate=9254.4kbits/s speed=0.618x    frame=  353 fps= 16 q=28.0 size=   14781kB time=00:00:13.75 bitrate=8805.5kbits/s speed=0.632x    frame=  369 fps= 17 q=28.0 size=   14781kB time=00:00:14.41 bitrate=8398.2kbits/s speed=0.646x    frame=  375 fps= 16 q=27.0 size=   14781kB time=00:00:14.66 bitrate=8255.1kbits/s speed=0.642x    frame=  387 fps= 17 q=27.0 size=   18374kB time=00:00:15.16 bitrate=9923.6kbits/s speed=0.65x    frame=  395 fps= 17 q=27.0 size=   18374kB time=00:00:15.50 bitrate=9710.5kbits/s speed=0.649x    frame=  407 fps= 17 q=27.0 size=   18374kB time=00:00:16.00 bitrate=9407.0kbits/s speed=0.656x    frame=  415 fps= 17 q=27.0 size=   18374kB time=00:00:16.33 bitrate=9215.2kbits/s speed=0.655x    frame=  428 fps= 17 q=27.0 size=   18374kB time=00:00:16.87 bitrate=8919.3kbits/s speed=0.663x    frame=  439 fps= 17 q=27.0 size=   21956kB time=00:00:17.33 bitrate=10376.3kbits/s speed=0.668x    frame=  450 fps= 17 q=27.0 size=   21956kB time=00:00:17.79 bitrate=10108.6kbits/s speed=0.672x    frame=  463 fps= 17 q=27.0 size=   21956kB time=00:00:18.33 bitrate=9810.3kbits/s speed=0.679x    frame=  475 fps= 17 q=27.0 size=   21956kB time=00:00:18.83 bitrate=9549.9kbits/s speed=0.684x    frame=  487 fps= 17 q=27.0 size=   21956kB time=00:00:19.33 bitrate=9302.9kbits/s speed=0.687x    frame=  494 fps= 17 q=27.0 size=   21956kB time=00:00:19.62 bitrate=9164.5kbits/s speed=0.685x    frame=  500 fps= 17 q=-1.0 Lsize=   27058kB time=00:00:20.70 bitrate=10703.4kbits/s speed=0.707x    
video:27053kB audio:0kB subtitle:0kB other streams:0kB global headers:0kB muxing overhead: 0.018053%
bench: utime=84.176s
bench: maxrss=915144kB
[libx264 @ 0x40771c0] frame I:8     Avg QP:22.15  size:190627
[libx264 @ 0x40771c0] frame P:284   Avg QP:27.26  size: 66358
[libx264 @ 0x40771c0] frame B:208   Avg QP:24.84  size: 35244
[libx264 @ 0x40771c0] consecutive B-frames: 41.2%  8.0%  6.0% 44.8%
[libx264 @ 0x40771c0] mb I  I16..4: 30.7% 55.9% 13.4%
[libx264 @ 0x40771c0] mb P  I16..4: 18.8% 22.4%  0.4%  P16..4: 17.7%  7.6%  2.1%  0.0%  0.0%    skip:30.9%
[libx264 @ 0x40771c0] mb B  I16..4:  3.2%  2.3%  0.2%  B16..8: 14.1%  4.5%  0.5%  direct: 4.3%  skip:70.9%  L0:40.6% L1:47.9% BI:11.5%
[libx264 @ 0x40771c0] final ratefactor: 24.43
[libx264 @ 0x40771c0] 8x8 transform intra:52.8% inter:57.8%
[libx264 @ 0x40771c0] coded y,uvDC,uvAC intra: 21.8% 19.2% 1.8% inter: 5.8% 8.1% 0.1%
[libx264 @ 0x40771c0] i16 v,h,dc,p: 45% 27% 15% 13%
[libx264 @ 0x40771c0] i8 v,h,dc,ddl,ddr,vr,hd,vl,hu: 20% 27% 33%  4%  3%  3%  4%  3%  4%
[libx264 @ 0x40771c0] i4 v,h,dc,ddl,ddr,vr,hd,vl,hu: 18% 26% 11%  8%  7%  6%  9%  5%  9%
[libx264 @ 0x40771c0] i8c dc,h,v,p: 66% 17% 16%  2%
[libx264 @ 0x40771c0] Weighted P-Frames: Y:0.4% UV:0.0%
[libx264 @ 0x40771c0] kb/s:10637.33
